<mxfile host="app.diagrams.net" modified="2021-01-23T17:49:06.531Z" agent="5.0 (Windows NT 10.0; Win64; x64) AppleWebKit/537.36 (KHTML, like Gecko) Chrome/87.0.4280.141 Safari/537.36" etag="hkeIO_XUKzsV9cMEIc98" version="14.2.7" type="github">
  <diagram name="Page-1" id="f1b7ffb7-ca1e-a977-7cf5-a751b3c06c05">
    <mxGraphModel dx="1209" dy="643" grid="1" gridSize="10" guides="1" tooltips="1" connect="1" arrows="1" fold="1" page="1" pageScale="1" pageWidth="826" pageHeight="1169" background="#ffffff" math="0" shadow="0">
      <root>
        <mxCell id="0" />
        <mxCell id="1" parent="0" />
        <mxCell id="GgNjHgiUNmpm6prIaHa7-69" value="" style="group" vertex="1" connectable="0" parent="1">
          <mxGeometry x="240" y="120" width="360" height="160" as="geometry" />
        </mxCell>
        <mxCell id="GgNjHgiUNmpm6prIaHa7-68" value="" style="rounded=0;whiteSpace=wrap;html=1;fontSize=16;align=left;" vertex="1" parent="GgNjHgiUNmpm6prIaHa7-69">
          <mxGeometry width="360" height="160" as="geometry" />
        </mxCell>
        <mxCell id="GgNjHgiUNmpm6prIaHa7-67" value="Wir danken Ihnen, dass Sie uns die Malerarbeiten anvertraut haben, und hoffen, dass Sie mit unserer Arbeit hundert Prozent zufrieden sind und wir wieder einmal f체r Sie t채tig sein d체rfen." style="text;html=1;strokeColor=none;fillColor=none;align=left;verticalAlign=middle;whiteSpace=wrap;rounded=0;fontSize=18;" vertex="1" parent="GgNjHgiUNmpm6prIaHa7-69">
          <mxGeometry x="4.5" y="10" width="351" height="90" as="geometry" />
        </mxCell>
        <mxCell id="GgNjHgiUNmpm6prIaHa7-70" value="Pr체fen" style="strokeWidth=1;shadow=0;dashed=0;align=center;html=1;shape=mxgraph.mockup.buttons.button;strokeColor=#666666;fontColor=#ffffff;mainText=;buttonStyle=round;fontSize=17;fontStyle=1;fillColor=#008cff;whiteSpace=wrap;" vertex="1" parent="1">
          <mxGeometry x="500" y="290" width="100" height="40" as="geometry" />
        </mxCell>
        <mxCell id="GgNjHgiUNmpm6prIaHa7-71" value="Frage 1 von 10" style="text;html=1;strokeColor=none;fillColor=none;align=center;verticalAlign=middle;whiteSpace=wrap;rounded=0;fontSize=18;fontStyle=1" vertex="1" parent="1">
          <mxGeometry x="240" y="90" width="130" height="20" as="geometry" />
        </mxCell>
      </root>
    </mxGraphModel>
  </diagram>
</mxfile>
